<svg width="754" height="911" viewBox="0 0 754 911" fill="none" xmlns="http://www.w3.org/2000/svg">
<path d="M605.698 99.1688C606.557 99.863 607.816 99.7291 608.51 98.8699C609.205 98.0107 609.071 96.7515 608.212 96.0574L605.698 99.1688ZM495.603 24.7695L495.137 26.7145L495.603 24.7695ZM433.892 13.3709L434.143 11.3866L433.892 13.3709ZM369.113 11.2078L369.094 13.2077L369.113 11.2078ZM301.121 15.4037L301.452 17.3762L301.121 15.4037ZM189.511 53.5628L190.707 55.166L189.511 53.5628ZM87.0885 170.708L88.8654 171.626L87.0885 170.708ZM68.7367 214.318L66.8884 213.553L68.7367 214.318ZM36.6647 291.187L34.7561 290.59L36.6647 291.187ZM35.0972 418.053L33.1189 418.347L35.0972 418.053ZM47.6699 488.687L45.7471 489.237L47.6699 488.687ZM94.2409 565.639L95.8128 564.402L94.2409 565.639ZM221.555 656.782L222.326 654.936L221.555 656.782ZM360.421 682.902L360.691 680.92L360.421 682.902ZM487.145 679.53L486.535 677.625L487.145 679.53ZM595.705 644L594.591 642.339L595.705 644ZM633.719 610.425L635.052 611.916L633.719 610.425ZM681.396 572.848L680.078 571.343L681.396 572.848ZM717.392 502.733L719.047 503.856L717.392 502.733ZM739.577 457.502L737.587 457.31L739.577 457.502ZM746.517 407.282L744.524 407.109L746.517 407.282ZM749.28 367.952L751.221 368.434L749.28 367.952ZM742.423 275.58L744.144 274.561L742.423 275.58ZM719.346 233.994L717.569 234.91L719.346 233.994ZM658.871 157.559L657.328 158.831L658.871 157.559ZM633.719 133.629L634.9 132.015L633.719 133.629ZM596.886 104.924L598.029 103.283L596.886 104.924ZM502.621 51.0345L503.427 49.2043L502.621 51.0345ZM446.667 34.1494L447.095 32.1957L446.667 34.1494ZM383.72 22.7655L383.893 20.773L383.72 22.7655ZM145.19 68.1079L144.078 66.4456L145.19 68.1079ZM51.8981 168.114L50.1988 167.06L51.8981 168.114ZM4.28182 306.443L6.25575 306.765L4.28182 306.443ZM2.93846 363.814L4.93708 363.74L2.93846 363.814ZM6.77218 412.526L8.74019 412.17L6.77218 412.526ZM46.3535 514.948L44.5983 515.906L46.3535 514.948ZM81.8275 567.276L83.314 565.938L81.8275 567.276ZM210.231 678.549L211.333 676.88L210.231 678.549ZM296.009 713.716L296.588 711.802L296.009 713.716ZM385.25 723.69L385.148 721.693L385.25 723.69ZM488.093 712.543L488.532 714.495L488.093 712.543ZM575.282 678.617L576.209 680.389L575.282 678.617ZM681.396 586.348L682.975 587.574L681.396 586.348ZM741.418 456.779L743.393 457.096L741.418 456.779ZM748.37 328.087L746.378 328.265L748.37 328.087ZM674.062 153.475L672.469 154.684L674.062 153.475ZM595.705 72.0937L596.809 70.4262L595.705 72.0937ZM522.051 35.8079L522.667 33.905L522.051 35.8079ZM447.397 15.1135L447.92 13.1831L447.397 15.1135ZM361.344 2.66009L361.23 0.663372L361.344 2.66009ZM215.334 46.1671L214.355 44.4231L215.334 46.1671ZM158.037 97.1323L156.497 95.8562L158.037 97.1323ZM91.6876 195.596L89.8994 194.7L91.6876 195.596ZM68.0965 255.46L69.9815 256.129L68.0965 255.46ZM44.241 354.953L46.2405 354.999L44.241 354.953ZM66.6507 493.959L68.3911 492.974L66.6507 493.959ZM157.312 607.956L158.619 606.442L157.312 607.956ZM221.916 657.166L220.924 658.903L221.916 657.166ZM306.725 690.511L306.133 692.421L306.725 690.511ZM404.05 708.844L404.128 710.842L404.05 708.844ZM510.771 699.784L511.112 701.755L510.771 699.784ZM655.4 610.425L653.871 609.136L655.4 610.425ZM723.975 386.117L725.975 386.083L723.975 386.117ZM701.686 229.773L699.783 230.388L701.686 229.773ZM572.922 71.9889L574.071 70.3518L572.922 71.9889ZM445.786 20.8513L446.286 18.9149L445.786 20.8513ZM302.515 7.95018L302.578 9.94919L302.515 7.95018ZM256.032 12.8462L255.456 10.9309L256.032 12.8462ZM183.773 44.6077L182.71 42.9138L183.773 44.6077ZM106.423 115.469L107.966 116.741L106.423 115.469ZM50.0266 205.146L48.2056 204.319L50.0266 205.146ZM43.7869 394.266L45.7352 393.814L43.7869 394.266ZM60.8685 470.815L62.8332 470.441L60.8685 470.815ZM78.0761 525.901L79.9501 525.202L78.0761 525.901ZM106.314 589.03L108.025 587.995L106.314 589.03ZM183.02 664.105L181.844 665.723L183.02 664.105ZM303.5 746.5L304.981 745.157L304.911 745.079L304.833 745.009L303.5 746.5ZM375.586 910.414C376.367 911.195 377.633 911.195 378.414 910.414L391.142 897.687C391.923 896.906 391.923 895.639 391.142 894.858C390.361 894.077 389.095 894.077 388.314 894.858L377 906.172L365.686 894.858C364.905 894.077 363.639 894.077 362.858 894.858C362.077 895.639 362.077 896.905 362.858 897.687L375.586 910.414ZM608.212 96.0574C592.096 83.0377 574.627 67.21 556.095 53.5227C537.508 39.7949 517.542 27.9675 496.069 22.8246L495.137 26.7145C515.844 31.6741 535.301 43.1375 553.718 56.7403C572.191 70.3837 589.307 85.9265 605.698 99.1688L608.212 96.0574ZM496.069 22.8246C475.911 17.9965 454.729 13.9834 434.143 11.3866L433.642 15.3551C454.066 17.9314 475.102 21.916 495.137 26.7145L496.069 22.8246ZM434.143 11.3866C412.751 8.68825 390.401 9.41145 369.132 9.20789L369.094 13.2077C390.6 13.4135 412.556 12.6952 433.642 15.3551L434.143 11.3866ZM369.132 9.20789C346.618 8.9924 323.185 9.68046 300.791 13.4312L301.452 17.3762C323.503 13.683 346.662 12.993 369.094 13.2077L369.132 9.20789ZM300.791 13.4312C261.995 19.9289 221.112 27.4991 188.316 51.9596L190.707 55.166C222.617 31.3666 262.542 23.8929 301.452 17.3762L300.791 13.4312ZM188.316 51.9596C145.337 84.0145 110.158 121.69 85.3115 169.79L88.8654 171.626C113.378 124.172 148.108 86.9375 190.707 55.166L188.316 51.9596ZM85.3115 169.79C78.0512 183.846 72.8114 199.225 66.8884 213.553L70.585 215.082C76.6447 200.422 81.7051 185.488 88.8654 171.626L85.3115 169.79ZM66.8884 213.553C56.3876 238.956 43.1081 263.928 34.7561 290.59L38.5732 291.785C46.8679 265.307 59.8671 241.01 70.585 215.082L66.8884 213.553ZM34.7561 290.59C21.2493 333.706 26.7174 375.232 33.1189 418.347L37.0755 417.76C30.6641 374.577 25.3753 333.916 38.5732 291.785L34.7561 290.59ZM33.1189 418.347C36.6083 441.849 39.1061 466.04 45.7471 489.237L49.5926 488.136C43.047 465.272 40.601 441.505 37.0755 417.76L33.1189 418.347ZM45.7471 489.237C54.2511 518.942 74.1936 543.389 92.6689 566.875L95.8128 564.402C77.1996 540.74 57.8375 516.936 49.5926 488.136L45.7471 489.237ZM92.6689 566.875C126.47 609.844 171.036 637.858 220.785 658.627L222.326 654.936C172.967 634.329 129.057 606.662 95.8128 564.402L92.6689 566.875ZM220.785 658.627C264.27 676.782 314.569 678.676 360.151 684.884L360.691 680.92C314.54 674.635 265.17 672.823 222.326 654.936L220.785 658.627ZM360.151 684.884C401.478 690.512 446.819 694.559 487.756 681.434L486.535 677.625C446.544 690.447 402.017 686.548 360.691 680.92L360.151 684.884ZM487.756 681.434C505.376 675.785 524.582 672.121 543.645 667.185C562.573 662.284 581.145 656.168 596.818 645.661L594.591 642.339C579.496 652.457 561.464 658.439 542.643 663.313C523.956 668.152 504.267 671.94 486.535 677.625L487.756 681.434ZM596.818 645.661C605.482 639.854 611.265 634.791 616.787 629.476C622.33 624.142 627.458 618.711 635.052 611.916L632.385 608.935C624.731 615.784 619.395 621.414 614.014 626.594C608.612 631.792 603.012 636.694 594.591 642.339L596.818 645.661ZM635.052 611.916C641.179 606.434 649.903 599.825 658.732 593.168C667.515 586.546 676.404 579.875 682.713 574.353L680.078 571.343C673.906 576.746 665.158 583.314 656.324 589.974C647.537 596.599 638.663 603.317 632.385 608.935L635.052 611.916ZM682.713 574.353C691.968 566.252 697.833 553.099 702.966 539.966C708.184 526.612 712.653 513.279 719.047 503.856L715.737 501.61C709.013 511.52 704.321 525.508 699.24 538.51C694.073 551.733 688.499 563.972 680.078 571.343L682.713 574.353ZM719.047 503.856C728.346 490.153 739.833 475.692 741.568 457.694L737.587 457.31C735.974 474.031 725.335 487.466 715.737 501.61L719.047 503.856ZM741.568 457.694C742.375 449.325 743.73 441.075 745.08 432.734C746.426 424.416 747.766 416.014 748.509 407.455L744.524 407.109C743.796 415.5 742.48 423.763 741.132 432.095C739.787 440.405 738.408 448.789 737.587 457.31L741.568 457.694ZM748.509 407.455C749.076 400.93 748.985 394.109 749.142 387.572C749.3 380.961 749.708 374.53 751.221 368.434L747.339 367.471C745.716 374.01 745.303 380.801 745.143 387.476C744.981 394.223 745.076 400.749 744.524 407.109L748.509 407.455ZM751.221 368.434C753.55 359.049 753.701 349.083 753.113 339.239C752.533 329.532 751.179 319.412 750.472 310.428L746.485 310.742C747.228 320.193 748.533 329.659 749.12 339.478C749.698 349.159 749.525 358.659 747.339 367.471L751.221 368.434ZM750.472 310.428C750.247 307.565 750.138 304.616 750.005 301.575C749.872 298.552 749.715 295.455 749.391 292.386C748.743 286.254 747.413 280.083 744.144 274.561L740.702 276.599C743.55 281.41 744.791 286.927 745.413 292.806C745.723 295.743 745.876 298.733 746.008 301.75C746.14 304.748 746.252 307.79 746.485 310.742L750.472 310.428ZM744.144 274.561C736.034 260.865 728.434 247.252 721.124 233.077L717.569 234.91C724.92 249.163 732.557 262.845 740.702 276.599L744.144 274.561ZM721.124 233.077C713.364 218.031 703.397 205.177 692.783 192.926C682.088 180.581 670.962 169.085 660.414 156.287L657.328 158.831C667.857 171.608 679.314 183.488 689.76 195.546C700.288 207.698 710.02 220.274 717.569 234.91L721.124 233.077ZM660.414 156.287C652.705 146.932 644.762 139.232 634.9 132.015L632.537 135.243C642.105 142.244 649.809 149.708 657.328 158.831L660.414 156.287ZM634.9 132.015C628.675 127.46 622.696 122.54 616.632 117.607C610.585 112.689 604.462 107.766 598.029 103.283L595.742 106.565C602.04 110.953 608.058 115.79 614.108 120.71C620.14 125.617 626.211 130.613 632.537 135.243L634.9 132.015ZM598.029 103.283C567.845 82.2508 537.102 64.0431 503.427 49.2043L501.814 52.8647C535.201 67.5763 565.718 85.6437 595.742 106.565L598.029 103.283ZM503.427 49.2043C485.472 41.2923 466.069 36.3528 447.095 32.1957L446.239 36.103C465.156 40.2478 484.239 45.12 501.814 52.8647L503.427 49.2043ZM447.095 32.1957C426.389 27.6589 405.268 22.6289 383.893 20.773L383.547 24.758C404.601 26.586 425.414 31.5402 446.239 36.103L447.095 32.1957ZM383.893 20.773C346.382 17.516 309.454 20.9932 272.333 23.9146L272.647 27.9023C309.884 24.9717 346.439 21.536 383.547 24.758L383.893 20.773ZM272.333 23.9146C228.445 27.3687 181.157 41.6385 144.078 66.4456L146.303 69.7702C182.719 45.4063 229.321 31.3121 272.647 27.9023L272.333 23.9146ZM144.078 66.4456C105.39 92.3296 74.5726 127.79 50.1988 167.06L53.5973 169.169C77.7517 130.253 108.201 95.2618 146.303 69.7702L144.078 66.4456ZM50.1988 167.06C23.7517 209.67 10.2922 257.154 2.30788 306.121L6.25575 306.765C14.1947 258.076 27.5332 211.162 53.5973 169.169L50.1988 167.06ZM2.30788 306.121C-0.813335 325.264 0.234329 344.887 0.939838 363.889L4.93708 363.74C4.22647 344.602 3.21273 325.428 6.25575 306.765L2.30788 306.121ZM0.939838 363.889C1.52627 379.683 1.93681 397.046 4.80418 412.883L8.74019 412.17C5.93544 396.679 5.52786 379.651 4.93708 363.74L0.939838 363.889ZM4.80418 412.883C11.1773 448.082 27.5967 484.782 44.5983 515.906L48.1088 513.989C31.1866 483.01 15.0011 446.75 8.74019 412.17L4.80418 412.883ZM44.5983 515.906C54.8628 534.697 65.8315 552.492 80.3409 568.614L83.314 565.938C69.1098 550.156 58.3154 532.674 48.1088 513.989L44.5983 515.906ZM80.3409 568.614C118.123 610.593 161.948 649.064 209.129 680.218L211.333 676.88C164.457 645.927 120.887 607.684 83.314 565.938L80.3409 568.614ZM209.129 680.218C235.384 697.555 265.957 706.709 295.429 715.63L296.588 711.802C267.003 702.847 237.016 693.839 211.333 676.88L209.129 680.218ZM295.429 715.63C325.436 724.713 354.087 727.279 385.351 725.688L385.148 721.693C354.257 723.265 326.077 720.728 296.588 711.802L295.429 715.63ZM385.351 725.688C419.426 723.954 454.947 722.05 488.532 714.495L487.654 710.592C454.456 718.061 419.275 719.956 385.148 721.693L385.351 725.688ZM488.532 714.495C518.953 707.651 548.764 694.745 576.209 680.389L574.355 676.845C547.065 691.12 517.6 703.856 487.654 710.592L488.532 714.495ZM576.209 680.389C618.475 658.279 653.882 625.048 682.975 587.574L679.816 585.121C650.971 622.275 615.982 655.069 574.355 676.845L576.209 680.389ZM682.975 587.574C713.403 548.382 735.452 506.592 743.393 457.096L739.444 456.462C731.639 505.11 709.965 546.288 679.816 585.121L682.975 587.574ZM743.393 457.096C750.332 413.842 754.301 371.866 750.363 327.908L746.378 328.265C750.275 371.756 746.358 413.365 739.444 456.462L743.393 457.096ZM750.363 327.908C744.53 262.811 714.482 203.446 675.656 152.266L672.469 154.684C711.024 205.506 740.636 264.169 746.378 328.265L750.363 327.908ZM675.656 152.266C653.008 122.413 628.738 91.5704 596.809 70.4262L594.6 73.7613C625.887 94.4801 649.788 124.786 672.469 154.684L675.656 152.266ZM596.809 70.4262C574.169 55.4336 548.605 42.2973 522.667 33.905L521.436 37.7107C546.964 45.9705 572.201 58.9282 594.6 73.7613L596.809 70.4262ZM522.667 33.905C498.043 25.938 472.748 19.9074 447.92 13.1831L446.874 17.044C471.862 23.8113 496.934 29.7831 521.436 37.7107L522.667 33.905ZM447.92 13.1831C419.456 5.47434 391.231 -1.05659 361.23 0.663372L361.459 4.65682C390.765 2.97671 418.45 9.34592 446.874 17.044L447.92 13.1831ZM361.23 0.663372C308.557 3.68304 260.468 18.5358 214.355 44.4231L216.313 47.9111C261.932 22.3008 309.434 7.63932 361.459 4.65682L361.23 0.663372ZM214.355 44.4231C191.238 57.401 173.138 75.7743 156.497 95.8562L159.577 98.4084C176.092 78.4781 193.822 60.5375 216.313 47.9111L214.355 44.4231ZM156.497 95.8562C131.095 126.51 107.816 158.93 89.8994 194.7L93.4759 196.491C111.208 161.089 134.285 128.929 159.577 98.4084L156.497 95.8562ZM89.8994 194.7C80.2918 213.882 73.2936 234.822 66.2115 254.792L69.9815 256.129C77.1048 236.043 84.0073 215.396 93.4759 196.491L89.8994 194.7ZM66.2115 254.792C55.0998 286.124 43.0372 320.88 42.2416 354.906L46.2405 354.999C47.0187 321.718 58.8338 287.563 69.9815 256.129L66.2115 254.792ZM42.2416 354.906C41.1718 400.658 41.4267 453.466 64.9102 494.945L68.3911 492.974C45.5302 452.595 45.1673 400.897 46.2405 354.999L42.2416 354.906ZM64.9102 494.945C88.3697 536.381 119.803 578.217 156.005 609.47L158.619 606.442C122.849 575.563 91.6874 534.122 68.3911 492.974L64.9102 494.945ZM156.005 609.47C176.283 626.975 197.352 645.442 220.924 658.903L222.908 655.429C199.738 642.198 178.975 624.014 158.619 606.442L156.005 609.47ZM220.924 658.903C247.905 674.31 276.877 683.356 306.133 692.421L307.317 688.601C278.003 679.518 249.448 670.585 222.908 655.429L220.924 658.903ZM306.133 692.421C338.31 702.392 369.772 712.194 404.128 710.842L403.971 706.845C370.411 708.166 339.601 698.604 307.317 688.601L306.133 692.421ZM404.128 710.842C439.334 709.456 476.191 707.799 511.112 701.755L510.43 697.814C475.807 703.806 439.204 705.458 403.971 706.845L404.128 710.842ZM511.112 701.755C567.42 692.009 620.548 654.887 656.93 611.714L653.871 609.136C617.911 651.81 565.561 688.272 510.43 697.814L511.112 701.755ZM656.93 611.714C708.458 550.567 727.298 464.038 725.975 386.083L721.975 386.151C723.289 463.556 704.552 548.995 653.871 609.136L656.93 611.714ZM725.975 386.083C725.055 331.922 720.411 281.142 703.589 229.157L699.783 230.388C716.431 281.836 721.059 332.171 721.975 386.151L725.975 386.083ZM703.589 229.157C682.369 163.58 629.062 108.942 574.071 70.3518L571.774 73.626C626.422 111.976 678.942 165.983 699.783 230.388L703.589 229.157ZM574.071 70.3518C534.451 42.5482 491.861 30.6824 446.286 18.9149L445.286 22.7878C490.882 34.5609 532.815 46.2862 571.774 73.626L574.071 70.3518ZM446.286 18.9149C398.324 6.53113 351.718 4.40346 302.452 5.95116L302.578 9.94919C351.653 8.40748 397.838 10.5368 445.286 22.7878L446.286 18.9149ZM302.452 5.95116C287.055 6.43487 270.76 6.32994 255.456 10.9309L256.608 14.7615C271.282 10.3496 286.923 10.441 302.578 9.94919L302.452 5.95116ZM255.456 10.9309C230.167 18.5338 205.224 28.7814 182.71 42.9138L184.837 46.3017C206.969 32.4086 231.562 22.2914 256.608 14.7615L255.456 10.9309ZM182.71 42.9138C152.738 61.7281 127.189 87.1283 104.879 114.197L107.966 116.741C130.12 89.862 155.356 64.8076 184.837 46.3017L182.71 42.9138ZM104.879 114.197C82.263 141.638 62.9312 171.896 48.2056 204.319L51.8476 205.973C66.4162 173.896 85.5543 143.934 107.966 116.741L104.879 114.197ZM48.2056 204.319C30.6502 242.972 29.9423 283.685 33.1908 324.962L37.1785 324.648C33.945 283.562 34.7207 243.683 51.8476 205.973L48.2056 204.319ZM33.1908 324.962C35.0023 347.979 36.5529 371.933 41.8386 394.717L45.7352 393.814C40.5324 371.387 38.9988 347.778 37.1785 324.648L33.1908 324.962ZM41.8386 394.717C47.7586 420.236 54.021 445.537 58.9037 471.189L62.8332 470.441C57.9307 444.686 51.6373 419.255 45.7352 393.814L41.8386 394.717ZM58.9037 471.189C62.6269 490.749 69.3769 508.291 76.2021 526.6L79.9501 525.202C73.0942 506.812 66.4808 489.604 62.8332 470.441L58.9037 471.189ZM76.2021 526.6C84.3179 548.37 92.3927 569.892 104.603 590.066L108.025 587.995C96.0394 568.192 88.0834 547.019 79.9501 525.202L76.2021 526.6ZM104.603 590.066C124.298 622.608 152.004 644.023 181.844 665.723L184.196 662.488C154.358 640.789 127.262 619.78 108.025 587.995L104.603 590.066ZM181.844 665.723C201.294 679.868 222.564 692.528 243.308 705.568C264.096 718.637 284.406 732.115 302.167 747.991L304.833 745.009C286.804 728.894 266.252 715.267 245.437 702.182C224.578 689.069 203.502 676.528 184.196 662.488L181.844 665.723ZM302.019 747.844C307.042 753.383 314.342 758.365 321.971 764.39C329.705 770.498 338.129 777.917 345.948 788.618C361.561 809.987 375 844.779 375 909L379 909C379 844.221 365.439 808.514 349.177 786.258C341.059 775.146 332.326 767.471 324.451 761.251C316.47 754.948 309.708 750.368 304.981 745.157L302.019 747.844Z" fill="black"/>
</svg>
