<svg width="227" height="202" viewBox="0 0 227 202" fill="none" xmlns="http://www.w3.org/2000/svg">
<path d="M17 2C17 0.89543 16.1046 0 15 0C13.8954 0 13 0.89543 13 2L17 2ZM13.5858 201.414C14.3668 202.195 15.6332 202.195 16.4142 201.414L29.1421 188.686C29.9232 187.905 29.9232 186.639 29.1421 185.858C28.3611 185.077 27.0948 185.077 26.3137 185.858L15 197.172L3.68629 185.858C2.90524 185.077 1.63891 185.077 0.857864 185.858C0.0768156 186.639 0.0768156 187.905 0.857864 188.686L13.5858 201.414ZM13 2C13 61.6171 66.5367 100.582 119.145 117.281C145.532 125.657 172.035 128.566 192.057 125.619C202.06 124.147 210.61 121.189 216.707 116.564C222.875 111.885 226.5 105.509 226.5 97.5H222.5C222.5 104.116 219.578 109.365 214.289 113.377C208.929 117.444 201.112 120.244 191.474 121.662C172.215 124.496 146.343 121.718 120.355 113.469C68.2133 96.9177 17 58.8829 17 2L13 2ZM226.5 97.5C226.5 89.5076 222.892 82.8795 216.781 77.7703C210.718 72.702 202.194 69.1159 192.183 66.9815C172.152 62.7107 145.623 64.1336 119.191 71.8297C66.3492 87.2156 13 128.014 13 200H17C17 130.486 68.4008 90.7844 120.309 75.6703C146.252 68.1164 172.098 66.7893 191.349 70.8935C200.978 72.9466 208.821 76.3292 214.215 80.8391C219.561 85.308 222.5 90.8674 222.5 97.5H226.5Z" fill="#FCC344"/>
</svg>
