<svg width="32" height="16" viewBox="0 0 32 16" fill="none" xmlns="http://www.w3.org/2000/svg">
<path d="M1 7.00098C0.447715 7.00098 0 7.44869 0 8.00098C0 8.55326 0.447715 9.00098 1 9.00098V7.00098ZM31.7071 8.70808C32.0976 8.31756 32.0976 7.68439 31.7071 7.29387L25.3431 0.929909C24.9526 0.539384 24.3195 0.539384 23.9289 0.929909C23.5384 1.32043 23.5384 1.9536 23.9289 2.34412L29.5858 8.00098L23.9289 13.6578C23.5384 14.0484 23.5384 14.6815 23.9289 15.072C24.3195 15.4626 24.9526 15.4626 25.3431 15.072L31.7071 8.70808ZM1 9.00098H31V7.00098H1V9.00098Z" fill="black"/>
</svg>
