<svg width="31" height="38" viewBox="0 0 31 38" fill="none" xmlns="http://www.w3.org/2000/svg">
<path fill-rule="evenodd" clip-rule="evenodd" d="M15.5 37.8685C5.25 33.3022 0.125 28.7467 0.125 24.2018V7.11849C0.125 5.80719 0.628273 5.50243 2.02113 4.65899C2.44285 4.40361 2.94612 4.09885 3.54167 3.70182C3.81806 3.51756 9.62882 0.285156 15.5 0.285156C20.6169 0.285156 24.8958 1.99349 27.4583 3.70182C28.0539 4.09885 28.5572 4.40361 28.9789 4.65899C30.3717 5.50243 30.875 5.80719 30.875 7.11849C30.9087 7.48956 30.8921 15.3802 30.8815 20.4328L30.8815 20.4344V20.4345C30.8779 22.1575 30.875 23.5502 30.875 24.2018C30.875 28.7574 25.75 33.3129 15.5 37.8685ZM27.4583 24.2018C27.4583 23.8084 27.4593 23.1491 27.4615 22.0744L27.4684 18.7376C27.4706 17.6581 27.4723 16.7317 27.4738 15.8477C27.4801 12.0345 27.4784 8.7616 27.4747 7.74935L27.2401 7.60374L27.24 7.60372C26.6876 7.26101 25.9676 6.81431 25.5631 6.54466C23.0411 4.86335 19.3611 3.70182 15.5 3.70182C11.8067 3.70182 7.00725 5.49776 5.43689 6.54466C5.03242 6.81431 4.31239 7.261 3.75997 7.60371L3.54167 7.73919V24.2018C3.54167 26.7788 7.34973 30.2984 15.5016 34.1136C23.6524 30.307 27.4583 26.7886 27.4583 24.2018ZM21.1254 12.7439L13.7917 20.0776L9.87469 16.1606L7.45875 18.5765L13.7917 24.9095L23.5414 15.1599L21.1254 12.7439Z" fill="black"/>
</svg>
