<svg width="30" height="26" viewBox="0 0 30 26" fill="none" xmlns="http://www.w3.org/2000/svg">
<path d="M28.5276 0.554073C28.0476 0.147033 27.2937 0.0887926 26.5142 0.401753H26.5129C25.6931 0.730713 3.30587 10.3333 2.39451 10.7256C2.22875 10.7832 0.781071 11.3234 0.930191 12.5266C1.06331 13.6114 2.22683 14.0606 2.36891 14.1125L8.06043 16.0613C8.43803 17.3182 9.83003 21.9557 10.1379 22.9464C10.3299 23.564 10.6428 24.3755 11.1913 24.5426C11.6726 24.7282 12.1513 24.5586 12.4611 24.3154L15.9408 21.0878L21.558 25.4686L21.6918 25.5486C22.0732 25.7176 22.4387 25.8021 22.7875 25.8021C23.0569 25.8021 23.3155 25.7515 23.5625 25.6504C24.4041 25.3048 24.7408 24.5029 24.776 24.412L28.9718 2.60271C29.2278 1.43791 28.872 0.845273 28.5276 0.554073ZM13.08 16.8408L11.16 21.9608L9.23995 15.5608L23.96 4.68079L13.08 16.8408Z" fill="white"/>
</svg>
