<svg width="106" height="93" viewBox="0 0 106 93" fill="none" xmlns="http://www.w3.org/2000/svg">
<path d="M92.4142 41.0404C91.6332 40.2593 90.3668 40.2593 89.5858 41.0404L76.8579 53.7683C76.0768 54.5493 76.0768 55.8157 76.8579 56.5967C77.6389 57.3778 78.9052 57.3778 79.6863 56.5967L91 45.283L102.314 56.5967C103.095 57.3778 104.361 57.3778 105.142 56.5967C105.923 55.8157 105.923 54.5493 105.142 53.7683L92.4142 41.0404ZM89 42.4546C89 68.3253 69.8091 89 46.5 89V93C72.3387 93 93 70.1997 93 42.4546H89ZM46.5 89C23.1909 89 4 68.3253 4 42.4546H0C0 70.1997 20.6613 93 46.5 93V89Z" fill="#FCC344"/>
<path d="M2 42.4545C2 20.1236 18.6133 2 39.0833 2C59.5533 2 76.1667 20.1236 76.1667 42.4545" stroke="#FCC344" stroke-width="4" stroke-miterlimit="10"/>
<path d="M76.1673 42.4546C76.1673 60.3085 62.8668 74.8182 46.5007 74.8182C30.1345 74.8182 16.834 60.3085 16.834 42.4546" stroke="#FCC344" stroke-width="4" stroke-miterlimit="10"/>
<path d="M61.3327 42.4546C61.3327 51.4085 54.7071 58.6364 46.4993 58.6364C38.2916 58.6364 31.666 51.4085 31.666 42.4546" stroke="#FCC344" stroke-width="4" stroke-miterlimit="10"/>
<path d="M16.834 42.4546C16.834 29.0237 26.7723 18.1819 39.084 18.1819C51.3956 18.1819 61.334 29.0237 61.334 42.4546" stroke="#FCC344" stroke-width="4" stroke-miterlimit="10"/>
<path d="M31.666 42.4544C31.666 37.9775 34.9788 34.3635 39.0827 34.3635C43.1866 34.3635 46.4993 37.9775 46.4993 42.4544" stroke="#FCC344" stroke-width="4" stroke-miterlimit="10"/>
</svg>
