<svg width="30" height="19" viewBox="0 0 30 19" fill="none" xmlns="http://www.w3.org/2000/svg">
<path d="M29.5086 16.8291C28.3106 14.6731 25.2246 12.0825 23.9506 10.9551C23.6019 10.6465 23.5646 10.1125 23.8819 9.77115C26.3133 7.15848 28.2579 4.15648 28.9273 2.34248C29.2226 1.54114 28.6113 0.694476 27.7499 0.694476H25.2479C24.4233 0.694476 23.9406 0.990477 23.7106 1.46181C21.6899 5.60248 19.9566 7.39448 18.7433 8.44181C18.0639 9.02848 17.0046 8.54248 17.0046 7.64981C17.0046 5.92981 17.0046 3.70648 17.0046 2.12981C17.0046 1.36514 16.3793 0.746477 15.6079 0.746477L11.0373 0.694476C10.4619 0.694476 10.1333 1.34581 10.4786 1.80248L11.2333 2.88581C11.5173 3.26114 11.6706 3.71781 11.6706 4.18648L11.6666 9.06515C11.6666 9.91381 10.6379 10.3285 10.0273 9.73381C7.96126 7.72181 6.16859 3.61314 5.52326 1.64848C5.33659 1.07981 4.80393 0.69581 4.19993 0.694476L1.73526 0.688477C0.810592 0.688477 0.134592 1.56514 0.385925 2.44781C2.63793 10.3525 7.25859 17.8725 15.4933 18.6878C16.3046 18.7678 17.0046 18.1145 17.0046 17.3058V14.7418C17.0046 14.0065 17.5813 13.3745 18.3226 13.3558C18.3486 13.3551 18.3746 13.3551 18.4006 13.3551C20.5786 13.3551 23.0179 16.5251 23.8713 18.0078C24.1166 18.4345 24.5753 18.6945 25.0713 18.6945H28.3866C29.3539 18.6945 29.9746 17.6685 29.5086 16.8291Z" fill="white"/>
</svg>
