<svg width="30" height="22" viewBox="0 0 30 22" fill="none" xmlns="http://www.w3.org/2000/svg">
<path d="M14.9049 0.0273438C10.6697 0.0273438 6.73481 0.329093 4.4895 0.798177C4.48472 0.799444 4.47994 0.800746 4.47518 0.802083C2.78357 1.18114 1.19071 2.39283 0.855387 4.29036C0.854943 4.29297 0.854509 4.29557 0.854085 4.29818C0.596476 5.82752 0.333252 7.82114 0.333252 10.694C0.333252 13.5614 0.597379 15.5022 0.923096 17.112C1.26664 18.9535 2.82273 20.2019 4.54028 20.5859C4.5485 20.5882 4.55675 20.5904 4.56502 20.5924C6.90839 21.0542 10.7322 21.3607 14.9674 21.3607C19.2025 21.3607 23.0284 21.0542 25.3723 20.5924C25.3806 20.5904 25.3888 20.5882 25.3971 20.5859C27.0887 20.2069 28.6815 18.9952 29.0168 17.0977C29.0177 17.0929 29.0186 17.0881 29.0195 17.0833C29.2731 15.5228 29.6018 13.5311 29.6666 10.6536C29.6667 10.6463 29.6667 10.6389 29.6666 10.6315C29.6666 7.75247 29.3371 5.74646 29.0155 4.15755C28.6747 2.31206 27.1168 1.06033 25.3971 0.675781C25.3708 0.66994 25.3443 0.665162 25.3176 0.661458C23.0309 0.339977 19.1407 0.0273438 14.9049 0.0273438ZM12.4374 5.69531C12.6844 5.69021 12.9396 5.74861 13.1796 5.88411L18.9153 9.125C19.8826 9.67167 19.8826 11.051 18.9153 11.5977L13.1796 14.8385C12.2203 15.3799 11.0247 14.6942 11.0247 13.6016V7.11979C11.0247 6.30029 11.6966 5.71062 12.4374 5.69531Z" fill="white"/>
</svg>
